<svg width="26" height="24" viewBox="0 0 26 24" fill="none" xmlns="http://www.w3.org/2000/svg">
<path d="M12.3922 0.833837C12.6968 -0.0763743 13.9842 -0.0763764 14.2888 0.833834L16.5562 7.60951C16.6927 8.01729 17.0746 8.29217 17.5045 8.29217H24.7779C25.7537 8.29217 26.1517 9.54679 25.3543 10.1093L19.5213 14.2242C19.1604 14.4788 19.0093 14.9399 19.1494 15.3587L21.3893 22.0522C21.6959 22.9683 20.654 23.7436 19.8646 23.1867L13.917 18.991C13.5713 18.7472 13.1097 18.7472 12.7641 18.991L6.81647 23.1867C6.02705 23.7436 4.98514 22.9683 5.29172 22.0522L7.53163 15.3587C7.67178 14.9399 7.52062 14.4788 7.15977 14.2242L1.3267 10.1093C0.529303 9.54679 0.927304 8.29217 1.90315 8.29217H9.17649C9.60649 8.29217 9.98835 8.01729 10.1248 7.60951L12.3922 0.833837Z" fill="url(#paint0_angular_663_30)"/>
<defs>
<radialGradient id="paint0_angular_663_30" cx="0" cy="0" r="1" gradientUnits="userSpaceOnUse" gradientTransform="translate(13.5 -2.5) rotate(90.9392) scale(30.5041 31.4166)">
<stop stop-color="#FF8A00"/>
<stop offset="0.370149" stop-color="#F5AB55"/>
<stop offset="1" stop-color="#E5E5E5"/>
</radialGradient>
</defs>
</svg>
